<svg display="block" role="presentation" viewBox="0 0 199 256" xmlns="http://www.w3.org/2000/svg"><path d="M 20.813 254.186 C 9.318 254.186 0 244.868 0 233.373 L 0 20.813 C 0 9.318 9.318 0 20.813 0 L 176.713 0 C 188.208 0 197.526 9.318 197.526 20.813 L 197.526 233.373 C 197.526 244.868 188.208 254.186 176.713 254.186 Z" fill="rgb(10, 10, 11)" height="254.18599999999998px" id="PeixPcjMy" transform="translate(0.443 0.443)" width="197.526px"/><path d="M 20.813 254.186 C 9.318 254.186 0 244.868 0 233.373 L 0 20.813 C 0 9.318 9.318 0 20.813 0 L 176.713 0 C 188.208 0 197.526 9.318 197.526 20.813 L 197.526 233.373 C 197.526 244.868 188.208 254.186 176.713 254.186 Z" fill="transparent" height="254.18599999999998px" id="YMbwwEB7q" stroke-dasharray="" stroke-linecap="butt" stroke-linejoin="miter" stroke-miterlimit="10" stroke-width="0.885666" stroke="rgb(24, 25, 27)" transform="translate(0.443 0.443)" width="197.526px"/><g d="M 0 170.048 L 0 0 L 113.388 0 L 113.388 170.048 Z M 56.694 85.014 C 56.694 69.362 69.383 56.673 85.035 56.673 C 100.687 56.673 113.376 69.362 113.376 85.014 C 113.376 100.667 100.687 113.355 85.035 113.355 C 69.383 113.355 56.694 100.667 56.694 85.014 Z M 0.004 141.696 C 0.004 126.043 12.693 113.354 28.346 113.354 L 56.687 113.354 L 56.687 141.696 C 56.687 157.348 43.998 170.037 28.346 170.037 C 12.693 170.037 0.004 157.348 0.004 141.696 Z M 56.694 0 L 56.694 56.682 L 85.035 56.682 C 100.688 56.682 113.376 43.993 113.376 28.341 C 113.376 12.688 100.688 0 85.035 0 Z M 0.007 28.341 C 0.007 43.994 12.696 56.683 28.348 56.683 L 56.689 56.683 L 56.689 0 L 28.348 0 C 12.696 0 0.007 12.689 0.007 28.341 Z M 0.004 85.014 C 0.004 100.667 12.693 113.355 28.346 113.355 L 56.687 113.355 L 56.687 56.673 L 28.346 56.673 C 12.693 56.673 0.004 69.362 0.004 85.014 Z" fill="transparent" height="170.048px" id="QolsC_AYP" transform="translate(42.512 42.512)" width="113.388px"><path d="M 0 170.048 L 0 0 L 113.388 0 L 113.388 170.048 Z" fill="transparent" height="170.048px" id="A8jiSLjg4" width="113.388px"/><path d="M 0 28.341 C 0 12.689 12.689 0 28.341 0 C 43.993 0 56.682 12.689 56.682 28.341 C 56.682 43.994 43.993 56.682 28.341 56.682 C 12.689 56.682 0 43.994 0 28.341 Z" fill="rgb(26, 188, 254)" height="56.682199999999995px" id="dqSBx5Qqd" transform="translate(56.694 56.673)" width="56.68220000000001px"/><path d="M 0 28.342 C 0 12.689 12.689 0 28.341 0 L 56.683 0 L 56.683 28.342 C 56.683 43.994 43.994 56.683 28.341 56.683 C 12.689 56.683 0 43.994 0 28.342 Z" fill="rgb(10, 207, 131)" height="56.68299999999999px" id="amMGAEvtO" transform="translate(0.005 113.354)" width="56.6826px"/><path d="M 0 0 L 0 56.682 L 28.341 56.682 C 43.994 56.682 56.682 43.993 56.682 28.341 C 56.682 12.688 43.994 0 28.341 0 Z" fill="rgb(255, 114, 98)" height="56.68220000000001px" id="dwSykHudR" transform="translate(56.694 0)" width="56.68220000000001px"/><path d="M 0 28.341 C 0 43.994 12.689 56.683 28.341 56.683 L 56.683 56.683 L 56.683 0 L 28.341 0 C 12.689 0 0 12.689 0 28.341 Z" fill="rgb(242, 78, 30)" height="56.68260000000001px" id="Fntmq_yR4" transform="translate(0.007 0)" width="56.682599999999994px"/><path d="M 0 28.341 C 0 43.994 12.689 56.682 28.341 56.682 L 56.683 56.682 L 56.683 0 L 28.341 0 C 12.689 0 0 12.689 0 28.341 Z" fill="rgb(162, 89, 255)" height="56.682199999999995px" id="tfMfbcvRW" transform="translate(0.005 56.673)" width="56.6826px"/></g></svg>