<svg xmlns="http://www.w3.org/2000/svg" width="114" height="114" fill="none"><circle cx="56.775" cy="57.124" r="56.683" fill="url(#a)" stroke="#212225" stroke-linecap="round" stroke-linejoin="bevel" stroke-width=".619"/><path fill="#2E3135" d="m49.405 38.663-1.744-5.876 1.985-.589c.46-.137.862-.166 1.204-.086.344.077.628.235.853.474.225.24.389.532.491.878.103.346.126.682.068 1.007a1.645 1.645 0 0 1-.447.87c-.243.253-.593.447-1.05.583l-1.423.422-.188-.63 1.4-.416c.316-.094.553-.224.712-.39.159-.165.254-.354.285-.565a1.537 1.537 0 0 0-.056-.673 1.517 1.517 0 0 0-.32-.592.982.982 0 0 0-.548-.312c-.225-.05-.497-.027-.817.068l-1.25.371 1.556 5.244-.711.212Zm5.044-1.367-.43-4.576.68-.064.065.691.048-.004c.062-.235.196-.433.4-.594a1.34 1.34 0 0 1 .72-.28 7.719 7.719 0 0 1 .37-.023l.068.715a2.145 2.145 0 0 0-.167-.012 1.634 1.634 0 0 0-.267.004 1.252 1.252 0 0 0-.583.196 1.032 1.032 0 0 0-.473.985l.272 2.896-.703.066Zm4.824.145a2.004 2.004 0 0 1-1.055-.412c-.288-.23-.5-.53-.637-.902-.135-.371-.177-.793-.126-1.265.05-.476.182-.883.392-1.22.213-.336.484-.585.815-.748a2.005 2.005 0 0 1 1.118-.179 1.99 1.99 0 0 1 1.051.411c.29.23.503.532.637.905.137.374.18.799.128 1.275-.05.472-.182.875-.394 1.21-.21.334-.482.583-.814.746a1.99 1.99 0 0 1-1.115.178Zm.067-.631c.314.033.58-.02.8-.158.22-.14.392-.334.517-.586.126-.251.205-.53.237-.835a2.465 2.465 0 0 0-.054-.87 1.448 1.448 0 0 0-.38-.688c-.185-.184-.435-.293-.748-.327-.314-.033-.58.02-.8.161-.22.141-.392.338-.518.592a2.463 2.463 0 0 0-.237.838 2.44 2.44 0 0 0 .054.867c.07.272.197.5.382.682.185.182.434.29.747.324Zm6.358-2.794-.176.572-2.368-.732.177-.572 2.367.732Zm-3.015 3.879 1.545-4.998c.077-.252.201-.443.371-.574.17-.131.363-.21.577-.235.215-.026.427-.006.637.059a1.653 1.653 0 0 1 .605.312l-.375.523a3.41 3.41 0 0 0-.13-.087.907.907 0 0 0-.226-.098c-.223-.07-.402-.063-.535.02-.133.081-.232.231-.3.449l-1.495 4.837-.674-.208Zm4.029 1.85c-.391-.208-.683-.474-.874-.797a1.969 1.969 0 0 1-.265-1.077c.016-.394.134-.799.355-1.214.221-.416.492-.742.812-.978a2.03 2.03 0 0 1 1.036-.405c.37-.034.738.047 1.105.242.211.113.401.259.57.439.168.18.295.394.38.643.085.246.11.526.072.838-.037.313-.157.658-.358 1.037l-.14.264-3.129-1.664.287-.54 2.494 1.328a1.51 1.51 0 0 0 .189-.686 1.172 1.172 0 0 0-.16-.63 1.223 1.223 0 0 0-.503-.469 1.267 1.267 0 0 0-.743-.158 1.377 1.377 0 0 0-.668.255 1.587 1.587 0 0 0-.48.551l-.191.36c-.163.306-.249.594-.256.863-.005.269.058.51.189.721.132.21.324.383.576.517.164.087.324.143.48.167.16.024.312.015.459-.027.147-.043.285-.122.413-.234l.512.49c-.172.17-.374.293-.606.368-.232.074-.48.095-.746.064a2.33 2.33 0 0 1-.81-.268Zm7.376.897-.595-.284c.04-.106.063-.222.07-.348a.855.855 0 0 0-.068-.394 1.13 1.13 0 0 0-.315-.408 1.208 1.208 0 0 0-.657-.318c-.224-.026-.4.035-.53.183a.504.504 0 0 0-.131.44c.029.16.123.355.282.585l.402.576c.243.346.373.663.389.95.017.286-.08.55-.292.791a1.167 1.167 0 0 1-.637.381c-.25.057-.515.042-.796-.046a2.296 2.296 0 0 1-.825-.484c-.352-.31-.577-.642-.673-.998-.097-.355-.047-.707.15-1.055l.614.316a.926.926 0 0 0-.095.657c.053.212.188.413.406.604.247.217.49.337.727.36.24.022.426-.04.556-.19a.534.534 0 0 0 .139-.411c-.012-.157-.087-.331-.225-.524l-.458-.64c-.25-.353-.38-.673-.39-.961a1.123 1.123 0 0 1 .302-.79c.17-.194.377-.319.618-.373a1.49 1.49 0 0 1 .762.044c.267.083.522.23.765.444.342.3.544.61.608.932.064.322.03.642-.103.96Zm3.205 4.013-.522-.403c.06-.095.108-.203.142-.325a.857.857 0 0 0 .017-.4 1.14 1.14 0 0 0-.222-.465c-.168-.226-.36-.375-.576-.449-.213-.073-.398-.05-.557.067a.503.503 0 0 0-.22.402c-.006.163.045.374.152.632l.272.648c.165.39.225.726.18 1.01-.044.284-.194.52-.452.712a1.166 1.166 0 0 1-.703.238 1.508 1.508 0 0 1-.769-.212 2.296 2.296 0 0 1-.704-.648c-.279-.376-.428-.748-.448-1.117-.02-.367.103-.7.368-1l.534.439a.931.931 0 0 0-.23.623c.007.217.097.443.27.675.195.264.407.432.635.505.23.072.424.05.583-.068a.535.535 0 0 0 .222-.373c.022-.155-.015-.342-.11-.56l-.312-.722c-.17-.398-.23-.738-.18-1.022.053-.283.208-.519.462-.708.209-.154.436-.232.683-.234.248 0 .494.067.736.203.243.137.461.336.654.595.27.366.404.712.398 1.04a1.613 1.613 0 0 1-.303.917Zm-2.274 3.091 4.074-2.127.327.626-4.075 2.127-.326-.626Zm4.92-2.163a.503.503 0 0 1-.04-.381.452.452 0 0 1 .231-.286.454.454 0 0 1 .368-.027c.13.045.226.129.29.25a.492.492 0 0 1 .038.379.448.448 0 0 1-.23.289.448.448 0 0 1-.37.024.492.492 0 0 1-.287-.248Zm-3.622 5.785a2.004 2.004 0 0 1-.05-1.13c.094-.358.283-.673.568-.949.285-.273.654-.482 1.107-.626.456-.146.88-.19 1.273-.133a2.01 2.01 0 0 1 1.015.442c.283.238.488.555.614.95.127.396.143.772.05 1.128a1.981 1.981 0 0 1-.571.949c-.287.276-.658.486-1.115.632-.452.145-.874.187-1.266.128a1.985 1.985 0 0 1-1.011-.444 1.99 1.99 0 0 1-.614-.947Zm.605-.193c.095.3.251.523.467.667.216.145.464.224.745.237.28.013.567-.027.86-.12a2.48 2.48 0 0 0 .773-.402c.223-.173.382-.382.476-.626.094-.243.093-.515-.003-.816-.096-.3-.253-.522-.47-.666a1.447 1.447 0 0 0-.75-.235 2.467 2.467 0 0 0-.864.122c-.292.093-.55.226-.77.4a1.43 1.43 0 0 0-.47.624c-.092.243-.09.514.006.815ZM80.01 54.9l-2.76.169-.043-.705 4.588-.281.041.68-.716.045.003.06c.24.093.437.244.592.455.157.21.246.489.267.835a1.68 1.68 0 0 1-.141.827 1.29 1.29 0 0 1-.54.579c-.247.145-.566.23-.956.253l-2.916.18-.043-.706 2.868-.176c.36-.022.635-.133.825-.332.191-.2.277-.463.257-.79a1.232 1.232 0 0 0-.183-.594 1.05 1.05 0 0 0-.453-.389 1.413 1.413 0 0 0-.69-.11Zm-2.984 5.677c.049-.287.147-.538.295-.754.15-.215.34-.374.57-.476.232-.102.496-.128.79-.078.26.044.462.131.606.261.145.13.25.289.313.476.064.187.1.387.11.601.012.217.014.432.005.648a28.9 28.9 0 0 1-.034.683c-.01.176 0 .308.032.394.032.088.104.142.216.161l.023.004c.291.05.531.009.72-.123.188-.13.31-.355.364-.675.056-.333.028-.606-.085-.82a1.31 1.31 0 0 0-.398-.477l.348-.62c.256.164.443.358.563.581.121.225.193.46.214.704.022.247.014.484-.025.713-.024.145-.07.31-.138.492a1.629 1.629 0 0 1-.304.516 1.25 1.25 0 0 1-.557.363c-.234.082-.531.092-.891.03l-2.986-.509.12-.696.613.105.006-.036a1.24 1.24 0 0 1-.275-.29 1.38 1.38 0 0 1-.212-.488 1.717 1.717 0 0 1-.003-.69Zm.607.213a1.4 1.4 0 0 0 .043.724 1.12 1.12 0 0 0 .86.742l.638.108c-.03-.035-.052-.105-.064-.21a3.324 3.324 0 0 1-.016-.356 16.454 16.454 0 0 1 .025-.681 2.7 2.7 0 0 0-.028-.527.888.888 0 0 0-.169-.418.602.602 0 0 0-.395-.213c-.241-.041-.44.017-.594.175-.153.16-.253.379-.3.656Zm4.37 5.813-5.78-2.034.234-.666 5.781 2.034-.234.666Zm-10.045 4.51c.29-.32.614-.527.974-.621a1.99 1.99 0 0 1 1.105.032c.377.115.736.327 1.076.635.346.313.594.653.744 1.02.15.37.195.737.137 1.101a1.944 1.944 0 0 1-.505 1.013 2.06 2.06 0 0 1-.72.527c-.262.112-.53.157-.8.135a1.568 1.568 0 0 1-.766-.278l.474-.523c.192.1.41.136.654.107.244-.026.47-.154.68-.385a1.24 1.24 0 0 0 .326-.682 1.404 1.404 0 0 0-.122-.76 2.23 2.23 0 0 0-.558-.736 2.361 2.361 0 0 0-.8-.498 1.42 1.42 0 0 0-.776-.057 1.239 1.239 0 0 0-.652.395 1.26 1.26 0 0 0-.265.435 1.031 1.031 0 0 0 .12.92l-.474.523a1.637 1.637 0 0 1-.31-1.516 1.99 1.99 0 0 1 .458-.788Zm-3.568 3.06c.365-.252.736-.388 1.111-.408.375-.019.734.069 1.077.261.343.196.647.488.914.876s.431.778.493 1.171a2.03 2.03 0 0 1-.119 1.106 1.946 1.946 0 0 1-.725.869 2.18 2.18 0 0 1-.652.303c-.237.066-.486.08-.745.04a1.86 1.86 0 0 1-.778-.322c-.26-.178-.511-.443-.754-.797l-.17-.246 2.92-2.007.346.503-2.328 1.6c.147.214.32.375.522.484a1.173 1.173 0 0 0 1.28-.081 1.27 1.27 0 0 0 .483-.586c.09-.23.117-.466.082-.71a1.582 1.582 0 0 0-.268-.68l-.23-.336c-.197-.286-.413-.495-.648-.626a1.295 1.295 0 0 0-.727-.165c-.248.02-.49.111-.724.273a1.528 1.528 0 0 0-.37.349c-.095.13-.157.27-.188.42-.03.15-.023.308.018.474l-.671.228a1.513 1.513 0 0 1-.048-.708c.042-.239.138-.47.288-.691.151-.22.355-.418.611-.595Zm-2.45 1.64 1.78 4.239-.63.264-.268-.64-.044.018c.01.242-.058.471-.205.687a1.34 1.34 0 0 1-.602.483 7.39 7.39 0 0 1-.347.133l-.278-.662c.024-.004.078-.017.162-.04.083-.019.167-.047.254-.083a1.25 1.25 0 0 0 .497-.362 1.032 1.032 0 0 0 .156-1.081l-1.127-2.682.651-.273Zm-4.079 6.155-.137-.582 2.319-.546.137.582-2.319.546Zm1.896.685-.688.162-1.004-4.264c-.046-.194-.108-.334-.187-.417a.45.45 0 0 0-.267-.14.915.915 0 0 0-.3.02 1.259 1.259 0 0 0-.294.107l-.285-.584a1.474 1.474 0 0 1 .493-.202c.195-.047.395-.05.6-.01.205.04.388.131.55.273.162.143.273.344.334.605l1.048 4.45Zm-3.992-4.993.514 4.568-.702.08-.514-4.569.702-.079Zm.242 5.37a.503.503 0 0 1 .37.1.452.452 0 0 1 .184.32.452.452 0 0 1-.108.352.502.502 0 0 1-.339.18.492.492 0 0 1-.366-.101.447.447 0 0 1-.187-.32.447.447 0 0 1 .111-.352.492.492 0 0 1 .335-.18Zm-4.31-.641.004-.599 2.478.018-.004.598-2.478-.017Zm1.768-4.584-.037 5.23a1.114 1.114 0 0 1-.19.657 1.15 1.15 0 0 1-.484.392 1.523 1.523 0 0 1-.627.127 1.652 1.652 0 0 1-.67-.124l.209-.609c.035.012.085.028.149.046a.905.905 0 0 0 .245.029c.234.001.403-.056.507-.173.103-.117.155-.29.156-.517l.036-5.063.706.005Zm-2.716-.1-.61 4.555-.7-.094.61-4.556.7.094Zm-1.068 5.267c.136.018.247.08.334.186a.452.452 0 0 1 .1.355.452.452 0 0 1-.19.316.502.502 0 0 1-.372.092.492.492 0 0 1-.33-.187.448.448 0 0 1-.104-.355.448.448 0 0 1 .193-.315c.11-.08.232-.11.369-.092Zm-2.647-6.274c.412.126.737.332.975.617.238.286.385.624.44 1.014.056.39.017.806-.117 1.244a2.821 2.821 0 0 1-.607 1.107c-.271.293-.584.49-.939.592a1.945 1.945 0 0 1-1.13-.026 2.06 2.06 0 0 1-.784-.428 1.673 1.673 0 0 1-.462-.667 1.568 1.568 0 0 1-.075-.811l.676.206c-.01.216.05.429.18.638.128.21.34.36.638.451.264.081.515.083.756.006.238-.075.45-.22.636-.434.184-.213.327-.485.429-.817.104-.34.14-.652.11-.936a1.42 1.42 0 0 0-.278-.727c-.155-.2-.367-.34-.634-.422a1.26 1.26 0 0 0-.506-.055 1.031 1.031 0 0 0-.782.5l-.675-.207a1.636 1.636 0 0 1 1.24-.926c.282-.045.584-.018.909.08Zm-3.781-1.655c.25.148.45.33.6.545.147.217.228.45.242.702a1.36 1.36 0 0 1-.21.766c-.133.227-.286.385-.459.473-.173.09-.358.13-.556.123a2.189 2.189 0 0 1-.6-.111 7.017 7.017 0 0 1-.608-.226 28.947 28.947 0 0 1-.626-.276 1.043 1.043 0 0 0-.38-.11c-.094-.002-.17.046-.227.144l-.012.021c-.15.254-.197.493-.141.716.054.222.221.416.501.58.29.172.556.243.796.213s.436-.097.588-.202l.456.547a1.61 1.61 0 0 1-.744.319 1.795 1.795 0 0 1-.735-.051 2.73 2.73 0 0 1-.657-.277 2.798 2.798 0 0 1-.41-.305 1.63 1.63 0 0 1-.374-.467 1.25 1.25 0 0 1-.142-.65c.008-.248.104-.53.29-.844l1.539-2.608.608.359-.316.536.03.018c.093-.061.216-.113.37-.154.154-.041.33-.049.531-.023.2.025.416.106.646.242Zm-.415.491a1.403 1.403 0 0 0-.692-.217 1.121 1.121 0 0 0-1 .54l-.328.557c.044-.016.117-.011.22.015.1.027.213.064.337.112a15.927 15.927 0 0 1 .629.266c.17.073.337.127.502.161a.887.887 0 0 0 .45-.009.603.603 0 0 0 .34-.293c.125-.21.14-.417.048-.617-.095-.2-.264-.372-.506-.515Zm-7.008-.053.392-.452 1.799 1.562-.393.452-1.798-1.563Zm.552 1.938-.533-.463 2.873-3.308c.13-.15.207-.283.229-.396a.45.45 0 0 0-.043-.298.916.916 0 0 0-.192-.23 1.258 1.258 0 0 0-.152-.117l-.106-.06.307-.574a1.477 1.477 0 0 1 .453.282c.15.131.27.292.358.482.087.19.12.391.1.606-.022.214-.12.422-.296.623l-2.998 3.453Zm.698-7.747c.27.351.424.714.465 1.088.037.373-.031.736-.206 1.09-.177.351-.453.67-.826.957a2.86 2.86 0 0 1-1.145.554 2.031 2.031 0 0 1-1.11-.061 1.946 1.946 0 0 1-.905-.679 2.178 2.178 0 0 1-.337-.636 1.758 1.758 0 0 1-.079-.742c.024-.26.118-.525.282-.793.163-.269.415-.534.756-.795l.237-.182 2.156 2.811-.484.372-1.72-2.242a1.51 1.51 0 0 0-.455.546 1.17 1.17 0 0 0-.117.64c.02.22.109.432.264.635.172.223.375.374.61.452.234.078.472.093.714.045.243-.048.465-.149.666-.303l.322-.248c.276-.21.473-.438.592-.68.116-.242.158-.487.127-.734a1.482 1.482 0 0 0-.31-.709 1.532 1.532 0 0 0-.368-.352 1.078 1.078 0 0 0-.429-.165 1.088 1.088 0 0 0-.473.042l-.263-.658c.227-.084.462-.111.705-.084.24.03.476.113.705.251.228.14.437.333.626.58Zm-7.95-7.522a2.162 2.162 0 0 0-.454.394 1.627 1.627 0 0 0-.418 1.024 1.98 1.98 0 0 0 .075.612c.096.35.274.644.533.881.26.238.589.393.987.465.398.073.854.04 1.365-.1.512-.14.92-.345 1.226-.612.305-.268.508-.573.609-.915.1-.342.1-.696 0-1.062a1.868 1.868 0 0 0-.46-.835 1.592 1.592 0 0 0-.785-.437 2.01 2.01 0 0 0-1.003.04l-.014-.233.487 1.778-.635.174-.617-2.25.635-.175c.487-.133.939-.145 1.355-.036.417.107.774.316 1.071.625.296.308.508.697.636 1.166.144.523.147 1.017.009 1.48a2.582 2.582 0 0 1-.798 1.212c-.394.344-.902.601-1.526.772-.467.128-.905.18-1.312.158a2.897 2.897 0 0 1-1.106-.274 2.434 2.434 0 0 1-.83-.654 2.628 2.628 0 0 1-.496-.984 2.72 2.72 0 0 1-.098-.91 2.426 2.426 0 0 1 .66-1.534c.196-.207.43-.376.701-.509l.203.74Zm3.838-4.884a2.004 2.004 0 0 1-.306 1.09c-.2.309-.48.55-.836.722-.357.17-.773.253-1.247.248-.48-.005-.896-.095-1.252-.272a2.009 2.009 0 0 1-.825-.738 2.004 2.004 0 0 1-.285-1.095 1.99 1.99 0 0 1 .306-1.087c.2-.311.48-.552.84-.722.358-.172.777-.256 1.255-.251.475.004.89.096 1.243.275.353.177.627.423.822.738.194.313.29.677.285 1.092Zm-.634-.006c.003-.315-.075-.575-.235-.78a1.429 1.429 0 0 0-.633-.458 2.439 2.439 0 0 0-.854-.155 2.464 2.464 0 0 0-.86.138 1.447 1.447 0 0 0-.648.446c-.166.202-.25.46-.253.776-.003.315.076.575.238.78.162.205.375.358.639.458.264.1.55.152.857.155a2.44 2.44 0 0 0 .858-.139c.264-.095.478-.243.641-.445.164-.202.247-.46.25-.776Zm1.29-4.904a2.004 2.004 0 0 1-.563.982c-.27.251-.598.417-.986.497-.388.079-.811.058-1.27-.062-.464-.12-.846-.31-1.148-.568a2.01 2.01 0 0 1-.62-.916 2.004 2.004 0 0 1-.012-1.132 1.99 1.99 0 0 1 .562-.98c.27-.253.6-.418.989-.496.39-.08.816-.06 1.28.061.459.12.838.31 1.138.57.3.257.505.562.618.915.112.351.116.727.011 1.129Zm-.614-.16c.08-.305.066-.577-.039-.814a1.429 1.429 0 0 0-.502-.598 2.441 2.441 0 0 0-.792-.358 2.464 2.464 0 0 0-.868-.075c-.281.028-.527.12-.736.275-.21.156-.355.386-.434.691-.08.305-.066.577.041.815.107.238.277.438.509.6.232.16.496.28.794.358.297.077.585.102.865.074.28-.028.523-.12.73-.276.208-.157.352-.387.432-.692Zm3.956-3.589a2.62 2.62 0 0 1-.542.706 1.838 1.838 0 0 1-1.176.49l-.072-.683c.104-.015.227-.04.369-.073a1.23 1.23 0 0 0 .443-.213c.155-.11.3-.286.434-.529.18-.324.25-.636.21-.934-.04-.298-.227-.54-.562-.726l-.817-.453-.029.053c.048.086.103.2.165.344.06.141.09.313.088.514-.003.2-.077.43-.223.691-.18.325-.418.574-.715.747-.296.17-.632.25-1.008.238-.375-.015-.772-.138-1.191-.37-.412-.229-.73-.5-.955-.814a1.917 1.917 0 0 1-.377-1 1.824 1.824 0 0 1 .243-1.035c.145-.262.304-.445.476-.55.172-.108.336-.173.491-.194a4.78 4.78 0 0 1 .374-.045l.035-.063-.638-.354.33-.597 4.135 2.294c.346.191.583.426.712.703.132.276.176.574.13.893a2.71 2.71 0 0 1-.33.96Zm-2.22-1.204c.137-.248.197-.489.178-.723a1.21 1.21 0 0 0-.273-.661 2.26 2.26 0 0 0-.69-.557c-.29-.161-.57-.26-.84-.295a1.315 1.315 0 0 0-.735.099c-.22.1-.4.277-.54.528-.145.262-.2.517-.163.765.036.246.142.475.317.686.176.21.4.39.672.54.28.155.55.249.813.28.262.03.502-.008.72-.113.218-.108.398-.291.541-.55Zm-2.027-6.865 4.775 3.843-.443.55-4.774-3.843.442-.55Zm7.177 1.714c-.333.292-.684.47-1.055.535-.37.063-.737.018-1.1-.133-.364-.153-.7-.407-1.011-.761-.31-.354-.52-.722-.628-1.105a2.03 2.03 0 0 1-.012-1.112c.1-.358.305-.675.617-.948a2.18 2.18 0 0 1 .612-.378 1.75 1.75 0 0 1 .736-.128c.26.007.53.083.81.228.279.146.56.38.843.702l.197.225-2.663 2.337-.403-.459 2.123-1.863a1.507 1.507 0 0 0-.575-.42 1.172 1.172 0 0 0-.646-.073 1.224 1.224 0 0 0-.615.306 1.268 1.268 0 0 0-.411.639c-.062.237-.061.476.002.714.064.24.18.454.346.644l.269.306c.229.26.468.443.717.545.25.1.497.126.742.078a1.49 1.49 0 0 0 .686-.356c.14-.122.249-.252.327-.39.078-.14.124-.287.137-.439a1.087 1.087 0 0 0-.074-.469l.64-.306c.098.221.142.454.13.698a1.75 1.75 0 0 1-.204.72 2.33 2.33 0 0 1-.537.663Z"/><path fill="#B0B4BA" d="M44.396 11.669a2.959 2.959 0 0 0-.573-.59 2.29 2.29 0 0 0-.673-.373 2.186 2.186 0 0 0-.759-.122 2.713 2.713 0 0 0-.832.148 2.49 2.49 0 0 0-1.165.796c-.305.372-.492.834-.561 1.384-.07.55.01 1.17.24 1.86.23.69.54 1.233.93 1.63.389.398.821.653 1.297.765.475.112.959.085 1.451-.079.457-.152.826-.384 1.108-.694a2.18 2.18 0 0 0 .539-1.105c.077-.426.033-.883-.13-1.37l.317-.037-2.395.8-.286-.855 3.033-1.013.286.855c.219.656.27 1.273.151 1.851a3.059 3.059 0 0 1-.774 1.512c-.399.427-.915.747-1.547.958-.705.236-1.38.277-2.025.123-.642-.154-1.215-.487-1.717-1-.5-.512-.89-1.189-1.17-2.029-.211-.63-.316-1.224-.316-1.783a3.97 3.97 0 0 1 .292-1.533c.193-.459.47-.854.832-1.185a3.597 3.597 0 0 1 1.309-.753c.42-.14.832-.207 1.238-.202a3.322 3.322 0 0 1 2.147.787c.297.252.547.56.748.921l-.995.333Zm6.973 4.558c-.563.078-1.076.013-1.538-.196a2.756 2.756 0 0 1-1.147-.987c-.302-.45-.498-.996-.587-1.64-.09-.65-.051-1.234.117-1.751.17-.518.449-.94.834-1.266.388-.327.863-.53 1.426-.608.563-.078 1.075-.012 1.534.197.462.209.845.54 1.148.991.305.452.503 1.002.593 1.652.09.644.048 1.224-.123 1.739a2.72 2.72 0 0 1-.835 1.262c-.385.327-.859.529-1.422.607Zm-.12-.86c.428-.06.765-.219 1.01-.476.246-.258.41-.574.494-.95a3.34 3.34 0 0 0 .038-1.189 3.377 3.377 0 0 0-.361-1.138 1.983 1.983 0 0 0-.734-.788c-.307-.183-.674-.245-1.102-.186-.428.06-.764.219-1.01.48-.245.26-.41.579-.492.957a3.378 3.378 0 0 0-.037 1.193c.058.417.178.795.36 1.134.182.339.427.599.733.78.307.18.674.242 1.102.182Zm6.945.478c-.568-.015-1.063-.163-1.485-.444a2.758 2.758 0 0 1-.97-1.161c-.225-.493-.33-1.064-.313-1.714.017-.656.151-1.225.401-1.708a2.752 2.752 0 0 1 1.03-1.114c.436-.259.938-.381 1.506-.366.569.014 1.062.162 1.481.444.422.282.746.67.97 1.165.228.495.334 1.07.317 1.727-.017.65-.152 1.215-.405 1.695-.25.48-.593.85-1.03 1.11-.433.259-.933.38-1.502.366Zm.023-.869c.431.012.79-.09 1.074-.304.284-.214.498-.5.641-.857.144-.357.22-.746.232-1.166a3.376 3.376 0 0 0-.17-1.182 1.983 1.983 0 0 0-.597-.897c-.272-.231-.625-.352-1.056-.364-.432-.01-.79.092-1.075.309a1.983 1.983 0 0 0-.641.865c-.144.36-.22.75-.231 1.17-.011.421.045.814.17 1.178.124.364.323.66.596.889.273.228.625.348 1.057.36Zm6.305 3.928c-.458-.09-.841-.225-1.148-.407a2.556 2.556 0 0 1-.736-.62 2.556 2.556 0 0 1-.402-.704l.86-.384c.064.13.147.28.25.45.104.173.259.335.466.487.209.155.5.268.873.34.499.098.934.057 1.306-.121.371-.179.607-.526.707-1.04l.244-1.256-.08-.016c-.092.1-.218.22-.38.36-.157.14-.368.25-.632.333-.26.08-.592.081-.994.003a2.628 2.628 0 0 1-1.276-.615 2.531 2.531 0 0 1-.737-1.213c-.14-.495-.148-1.064-.023-1.708.123-.633.341-1.163.655-1.589a2.626 2.626 0 0 1 1.143-.914 2.5 2.5 0 0 1 1.452-.123c.402.079.708.208.918.388.213.178.367.363.46.557.097.191.17.347.218.468l.097.019.19-.982.918.178-1.236 6.358c-.103.531-.308.94-.614 1.226a2.1 2.1 0 0 1-1.109.548 3.71 3.71 0 0 1-1.39-.023Zm.628-3.403c.381.074.72.05 1.017-.074.297-.123.545-.335.746-.636.2-.3.344-.679.433-1.135.087-.445.096-.851.028-1.218a1.802 1.802 0 0 0-.44-.917c-.225-.244-.531-.404-.917-.479-.403-.078-.758-.041-1.066.11a1.898 1.898 0 0 0-.759.705 3.235 3.235 0 0 0-.42 1.105 3.06 3.06 0 0 0-.02 1.178c.074.353.225.65.454.89.232.237.547.394.944.471Zm7.68-5.803-2.533 8.004-.923-.292 2.533-8.004.923.292Zm1.475 9.833c-.554-.248-.977-.584-1.269-1.009a2.697 2.697 0 0 1-.461-1.446c-.016-.54.108-1.105.372-1.693.264-.589.603-1.06 1.02-1.412a2.78 2.78 0 0 1 1.377-.65c.503-.08 1.014-.003 1.533.229.3.134.572.316.82.547.246.23.44.512.578.843.14.33.2.71.177 1.14-.022.43-.153.913-.394 1.45l-.167.374-4.43-1.985.343-.763 3.531 1.582c.145-.324.21-.642.194-.955a1.606 1.606 0 0 0-.276-.847 1.677 1.677 0 0 0-.731-.593 1.737 1.737 0 0 0-1.03-.147 1.887 1.887 0 0 0-.89.41 2.167 2.167 0 0 0-.604.798l-.228.51c-.195.433-.285.835-.27 1.203.018.368.126.69.325.968.2.275.478.493.835.653.232.104.456.165.672.184.22.018.428-.009.624-.08a1.49 1.49 0 0 0 .543-.358l.746.621c-.22.25-.485.436-.795.56-.31.123-.647.175-1.014.157a3.194 3.194 0 0 1-1.131-.291Zm16.095.442.79.64-3.498 4.32a2.93 2.93 0 0 1-1.283.939c-.49.18-1.007.217-1.55.11-.542-.108-1.07-.369-1.581-.783-.512-.415-.877-.876-1.096-1.383a2.87 2.87 0 0 1-.217-1.543 2.953 2.953 0 0 1 .655-1.447l3.498-4.32.79.64-3.447 4.256a2.19 2.19 0 0 0-.478 1.02c-.06.36-.017.717.127 1.069.148.352.403.674.766.968.364.294.733.477 1.107.549.377.069.734.036 1.071-.098a2.19 2.19 0 0 0 .9-.68l3.446-4.257Zm3.682 3.548-1.283 3.904.042.05 4.067-.59.77.917-4.912.679-1.517 4.721-.77-.916 1.233-3.862-.043-.05-4.016.547-.77-.917 4.955-.628 1.474-4.772.77.917Zm.64 15.905-1.092-2.35 7.614-3.537 1.14 2.454c.343.739.484 1.441.424 2.109a3.303 3.303 0 0 1-.744 1.814c-.435.543-1.047.997-1.835 1.363-.793.369-1.541.545-2.245.528a3.33 3.33 0 0 1-1.89-.623c-.555-.398-1.013-.984-1.372-1.758Zm.154-1.807.636 1.368c.293.63.656 1.095 1.091 1.396.436.3.925.449 1.468.444.543-.006 1.124-.152 1.744-.44.614-.286 1.097-.632 1.447-1.039.353-.408.556-.867.609-1.376.055-.51-.056-1.064-.332-1.658l-.684-1.473-5.979 2.778Zm2.576 9.492c-.153-.587-.155-1.127-.007-1.62a2.7 2.7 0 0 1 .84-1.266c.412-.35.93-.606 1.554-.768.624-.162 1.204-.192 1.739-.088a2.78 2.78 0 0 1 1.369.669c.377.343.637.789.78 1.339.083.317.111.645.086.981a2.403 2.403 0 0 1-.296.98c-.169.315-.429.598-.778.85-.35.252-.809.452-1.378.6l-.396.103-1.222-4.697.809-.21.974 3.744c.344-.089.633-.238.867-.445a1.6 1.6 0 0 0 .488-.746c.092-.289.093-.603.005-.941a1.736 1.736 0 0 0-.529-.896 1.89 1.89 0 0 0-.876-.437 2.167 2.167 0 0 0-1.001.027l-.54.14c-.46.12-.83.301-1.108.543-.276.244-.46.53-.552.86-.09.328-.085.68.013 1.06.064.245.156.458.276.639.124.182.275.328.453.437.18.108.387.175.62.199l-.02.97a2.073 2.073 0 0 1-.933-.269 2.418 2.418 0 0 1-.757-.693 3.193 3.193 0 0 1-.48-1.065Zm6.335 7.868-.333-.84c.138-.068.27-.163.395-.283a1.16 1.16 0 0 0 .299-.46c.071-.188.093-.422.064-.702-.039-.384-.16-.694-.363-.931-.2-.235-.435-.339-.704-.311a.69.69 0 0 0-.54.319c-.121.188-.208.472-.263.851l-.133.953c-.078.574-.244 1.013-.495 1.316-.25.303-.593.477-1.031.522a1.597 1.597 0 0 1-.994-.211 2.067 2.067 0 0 1-.756-.788c-.201-.35-.327-.769-.377-1.255-.065-.64.02-1.182.254-1.63.234-.446.612-.753 1.133-.92l.322.89c-.328.122-.564.313-.707.572-.144.262-.196.59-.155.984.046.449.178.795.395 1.04.22.246.465.356.734.328a.73.73 0 0 0 .523-.284c.134-.168.222-.413.263-.736l.137-1.07c.077-.587.245-1.03.503-1.328.261-.296.607-.466 1.039-.51.354-.037.677.03.969.2.292.174.534.425.724.755.191.332.309.718.354 1.158.064.62-.022 1.12-.258 1.502a2.206 2.206 0 0 1-.999.87Zm-4.792 2.06 6.296.006-.001.968-6.296-.007v-.967Zm7.345.5a.69.69 0 0 1 .193-.488.62.62 0 0 1 .464-.2c.18 0 .335.066.463.2a.69.69 0 0 1 .192.489c0 .188-.065.35-.193.483a.614.614 0 0 1-.464.205.615.615 0 0 1-.463-.206.676.676 0 0 1-.192-.484Zm-10.217 4.47c.054-.463.16-.855.318-1.176.155-.32.342-.58.56-.78.216-.198.44-.35.672-.455l.45.828a6.141 6.141 0 0 0-.43.284 1.685 1.685 0 0 0-.45.501c-.138.22-.23.52-.273.897-.058.505.015.936.222 1.293.206.356.57.565 1.091.625l1.27.147.01-.081a5.218 5.218 0 0 1-.389-.35 1.721 1.721 0 0 1-.38-.606c-.1-.253-.126-.584-.079-.991.059-.505.23-.945.516-1.319a2.54 2.54 0 0 1 1.152-.828c.483-.178 1.05-.23 1.702-.154.641.074 1.186.252 1.635.532.451.28.784.637.998 1.069.217.432.295.911.234 1.438-.047.407-.152.723-.316.946a1.706 1.706 0 0 1-.52.5 6.015 6.015 0 0 1-.45.254l-.011.098.993.115-.107.928-6.434-.744c-.538-.063-.96-.235-1.27-.519a2.1 2.1 0 0 1-.631-1.063 3.711 3.711 0 0 1-.083-1.388Zm3.44.366c-.044.386.007.722.152 1.008.146.287.376.518.691.695.316.177.704.292 1.166.345.45.052.856.03 1.216-.065.361-.096.654-.266.88-.51.227-.243.362-.56.408-.95.047-.408-.017-.76-.192-1.055a1.896 1.896 0 0 0-.761-.703 3.227 3.227 0 0 0-1.133-.333 3.062 3.062 0 0 0-1.176.07 1.78 1.78 0 0 0-.852.52c-.22.25-.352.576-.398.978Zm1.741 6.334-3.637-1.059.27-.928 6.047 1.759-.262.897-.944-.275-.023.079c.266.231.45.518.552.86.105.344.091.745-.042 1.201a2.3 2.3 0 0 1-.564 1.002 1.768 1.768 0 0 1-.965.496c-.385.073-.835.034-1.349-.115l-3.842-1.118.27-.929 3.779 1.1c.475.138.881.122 1.218-.048.339-.168.571-.468.697-.898a1.69 1.69 0 0 0 .038-.852 1.433 1.433 0 0 0-.404-.71c-.207-.206-.487-.36-.839-.462Zm-6.637 6.766c.261-.548.607-.963 1.038-1.245a2.697 2.697 0 0 1 1.457-.428c.54-.004 1.101.133 1.683.41.583.278 1.046.628 1.389 1.052.344.427.55.891.618 1.392.068.505-.02 1.014-.264 1.527a2.968 2.968 0 0 1-.566.807 2.4 2.4 0 0 1-.856.56c-.332.132-.713.182-1.143.15-.43-.032-.91-.174-1.44-.427l-.37-.176 2.085-4.382.755.359-1.663 3.494c.321.153.638.225.95.216.312-.006.597-.091.854-.256.256-.163.459-.402.61-.718a1.74 1.74 0 0 0 .17-1.027 1.887 1.887 0 0 0-.39-.898 2.168 2.168 0 0 0-.784-.623l-.504-.24c-.429-.204-.828-.303-1.197-.297-.368.01-.693.11-.975.303a2.03 2.03 0 0 0-.672.82c-.109.23-.176.452-.2.668-.022.22 0 .428.066.626.069.199.184.383.346.55l-.638.732a2.072 2.072 0 0 1-.542-.808 2.418 2.418 0 0 1-.134-1.016 3.21 3.21 0 0 1 .317-1.125Zm-1.731 3.676 5.284 3.424-.509.784-.798-.517-.035.055c.199.266.298.578.297.935 0 .358-.103.696-.308 1.012l-.149.221c-.06.088-.107.154-.142.197l-.825-.535c.024-.023.075-.08.153-.17.079-.085.153-.182.223-.29a1.73 1.73 0 0 0 .284-.793 1.454 1.454 0 0 0-.133-.76 1.415 1.415 0 0 0-.525-.585l-3.344-2.167.527-.811Zm2.724 14.644-10.124-9.387.557-.602 10.125 9.387-.558.602Zm-14.69 4.879.838-.576a2.114 2.114 0 0 0 1.458.611c.26.007.518-.03.773-.113a2.79 2.79 0 0 0 .728-.36 2.56 2.56 0 0 0 .92-1.099c.194-.444.249-.94.166-1.49-.084-.549-.332-1.123-.743-1.722-.412-.6-.858-1.038-1.34-1.314-.483-.275-.966-.402-1.45-.382a2.56 2.56 0 0 0-1.357.464c-.23.157-.429.34-.597.549a2.352 2.352 0 0 0-.386.677 2.16 2.16 0 0 0 .047 1.583l-.838.576a3.389 3.389 0 0 1-.307-1.187 3.15 3.15 0 0 1 .664-2.156c.237-.311.53-.587.88-.826.59-.406 1.214-.622 1.871-.649.658-.026 1.301.135 1.93.486.628.351 1.193.892 1.694 1.622.5.73.802 1.452.903 2.164.101.713.021 1.371-.24 1.975-.263.604-.689 1.109-1.28 1.514-.349.24-.711.414-1.087.522-.379.11-.759.153-1.141.127a3.091 3.091 0 0 1-1.11-.283 3.361 3.361 0 0 1-.996-.713Zm-6.328-3.427a2.56 2.56 0 0 1 1.083-.239c.36.007.685.101.977.285.294.186.524.466.692.84.148.329.203.624.165.887a1.504 1.504 0 0 1-.301.72 3.057 3.057 0 0 1-.6.584 9.554 9.554 0 0 1-.734.5 40.19 40.19 0 0 1-.803.482c-.208.124-.35.236-.423.338-.077.104-.083.226-.02.368l.014.03c.166.369.396.611.69.724.29.115.64.081 1.046-.101.421-.189.71-.43.867-.722.156-.292.236-.564.239-.817l.972-.078c.007.417-.07.778-.232 1.084-.163.31-.376.571-.638.781-.263.214-.54.386-.829.516a3.771 3.771 0 0 1-.666.218 2.21 2.21 0 0 1-.818.049 1.71 1.71 0 0 1-.839-.356c-.271-.204-.51-.535-.715-.991l-1.7-3.785.883-.396.35.778.044-.02c.004-.152.044-.33.12-.535.076-.205.207-.409.394-.613.187-.204.448-.38.782-.53Zm.221.854c-.349.156-.612.357-.79.602a1.534 1.534 0 0 0-.187 1.544l.363.808c.017-.062.08-.14.191-.234.11-.091.24-.187.392-.288a21.987 21.987 0 0 1 .795-.492c.216-.133.408-.278.578-.435a1.21 1.21 0 0 0 .345-.51c.062-.184.042-.388-.059-.612-.137-.307-.355-.487-.652-.543-.299-.051-.624.002-.976.16Zm-4.438 1.076 1.814 6.03-.895.269-.274-.91-.063.019a1.51 1.51 0 0 1-.379.905 1.834 1.834 0 0 1-.89.572c-.067.02-.153.045-.256.073a3.975 3.975 0 0 1-.235.058l-.283-.943c.034-.001.11-.011.226-.029a2.24 2.24 0 0 0 .358-.078 1.72 1.72 0 0 0 .73-.42 1.413 1.413 0 0 0 .368-1.451l-1.148-3.816.927-.279Zm-4.132 1.151 1.203 6.181-.918.178-.181-.933-.065.012a1.513 1.513 0 0 1-.467.864 1.834 1.834 0 0 1-.942.48l-.262.047a3.965 3.965 0 0 1-.24.034l-.188-.966c.034.002.11 0 .228-.007a2.26 2.26 0 0 0 .364-.041c.3-.059.556-.174.768-.346.21-.169.361-.377.455-.623.092-.244.11-.505.056-.784l-.761-3.911.95-.185Zm-6.684.704c.606-.038 1.136.063 1.592.303.453.243.814.598 1.081 1.066.265.471.418 1.028.458 1.671.04.644-.041 1.219-.245 1.725a2.783 2.783 0 0 1-.918 1.215c-.408.305-.896.475-1.463.511a3.001 3.001 0 0 1-.98-.103 2.406 2.406 0 0 1-.905-.477c-.277-.227-.505-.536-.686-.927-.18-.391-.29-.88-.326-1.466l-.026-.409 4.845-.304.052.835-3.862.242c.022.354.113.666.272.936.156.269.37.476.638.621.267.145.575.206.924.184a1.74 1.74 0 0 0 .98-.348c.267-.206.465-.465.596-.777a2.17 2.17 0 0 0 .164-.988l-.034-.556c-.03-.475-.137-.872-.322-1.192a1.77 1.77 0 0 0-.738-.705 2.027 2.027 0 0 0-1.043-.19c-.253.016-.48.066-.68.15a1.466 1.466 0 0 0-.516.361 1.48 1.48 0 0 0-.313.57l-.95-.204c.079-.322.227-.611.443-.865.217-.252.492-.456.825-.61a3.194 3.194 0 0 1 1.137-.27Zm-4.055.271-.418 6.283-.933-.062.064-.949-.066-.005c-.135.304-.36.542-.672.716a1.831 1.831 0 0 1-1.034.222c-.07-.004-.16-.012-.265-.021a3.652 3.652 0 0 1-.24-.029l.064-.981c.033.01.107.027.223.051.113.027.234.045.362.053.306.021.582-.025.831-.137a1.46 1.46 0 0 0 .6-.486c.15-.212.235-.46.254-.743l.265-3.976.965.064Zm-14.757 2.811c.005.29.046.562.123.814a2.3 2.3 0 0 0 .332.694c.145.207.327.387.546.54.219.153.473.274.763.363.476.146.946.156 1.41.029.465-.126.886-.393 1.262-.8.377-.408.672-.959.885-1.654.213-.695.277-1.317.191-1.867-.086-.55-.29-1.008-.611-1.375a2.612 2.612 0 0 0-1.228-.78c-.46-.14-.895-.167-1.305-.079a2.18 2.18 0 0 0-1.08.587c-.31.302-.54.699-.691 1.19l-.279-.154 2.414.74-.264.863-3.057-.938.264-.862c.203-.661.52-1.193.953-1.595a3.048 3.048 0 0 1 1.508-.78c.573-.116 1.178-.077 1.816.119.71.218 1.284.577 1.72 1.076.432.499.705 1.103.816 1.811.109.708.033 1.486-.226 2.332-.195.635-.455 1.18-.78 1.635a3.964 3.964 0 0 1-1.129 1.077 3.327 3.327 0 0 1-1.365.482c-.487.059-.988.01-1.502-.148a3.73 3.73 0 0 1-1.125-.555 3.31 3.31 0 0 1-.82-.839 3.183 3.183 0 0 1-.47-1.049 3.295 3.295 0 0 1-.075-1.185l1.004.308Zm-5.275.769 3.56-7.603.877.41-3.56 7.603-.877-.41Zm-.111-9.887c.485.297.84.672 1.065 1.127.222.453.31.95.26 1.49-.05.54-.245 1.086-.585 1.641-.342.56-.742.986-1.2 1.28-.46.291-.943.442-1.448.45-.507.007-1.003-.138-1.488-.434-.485-.297-.839-.672-1.061-1.125a2.714 2.714 0 0 1-.26-1.494c.05-.543.247-1.094.59-1.654.338-.555.738-.977 1.197-1.266a2.72 2.72 0 0 1 1.445-.447c.505-.009 1 .135 1.485.432Zm-.453.741c-.369-.225-.73-.316-1.083-.272a1.958 1.958 0 0 0-.983.422 3.34 3.34 0 0 0-.784.895c-.22.36-.367.729-.442 1.109-.075.38-.053.738.068 1.074.121.337.366.618.734.843.369.225.73.315 1.085.27.355-.046.684-.19.988-.43.304-.24.565-.54.785-.898.22-.36.366-.728.44-1.106.074-.377.05-.733-.072-1.067-.123-.335-.368-.614-.736-.84Zm-3.313-3.09-5.516 6.33-.73-.636 2.037-2.336-.062-.054a8.636 8.636 0 0 1-.497.121c-.21.046-.449.04-.716-.014-.271-.055-.561-.218-.87-.487a2.5 2.5 0 0 1-.796-1.22 2.652 2.652 0 0 1 .027-1.473c.148-.516.44-1.023.874-1.521.438-.503.904-.864 1.396-1.084.49-.218.975-.296 1.454-.234.477.064.914.269 1.31.614.304.265.504.528.6.79.093.262.133.502.119.718a6.18 6.18 0 0 1-.057.526l.087.076.635-.73.705.614Zm-2.786 1.75c.313-.36.536-.721.67-1.087a1.9 1.9 0 0 0 .097-1.041c-.07-.328-.25-.62-.543-.875-.305-.266-.63-.407-.973-.424a1.955 1.955 0 0 0-1.035.251 3.409 3.409 0 0 0-.96.784 3.32 3.32 0 0 0-.632 1.037 1.849 1.849 0 0 0-.097 1.04c.066.337.253.64.562.91.297.258.612.4.945.425a1.79 1.79 0 0 0 1.001-.225c.335-.176.657-.441.965-.796Zm-3.48-7.988c.255.307.428.634.52.98.09.348.085.687-.014 1.018-.1.332-.309.629-.625.89-.277.23-.548.362-.811.396a1.505 1.505 0 0 1-.774-.1 2.993 2.993 0 0 1-.723-.422 9.565 9.565 0 0 1-.677-.573 39.12 39.12 0 0 1-.68-.646c-.174-.168-.32-.274-.438-.318-.12-.046-.24-.02-.36.08l-.025.021c-.312.258-.483.544-.514.857-.033.312.092.639.376.982.295.355.604.57.927.643.323.073.607.077.852.013l.333.916c-.4.118-.768.14-1.106.065a2.458 2.458 0 0 1-.923-.407 3.74 3.74 0 0 1-.718-.661 3.834 3.834 0 0 1-.388-.584 2.23 2.23 0 0 1-.265-.776 1.711 1.711 0 0 1 .12-.903c.124-.316.38-.634.764-.953l3.195-2.647.617.745-.657.544.032.038a1.71 1.71 0 0 1 .547-.027c.218.018.45.09.696.217.246.126.486.33.72.612Zm-.763.44c-.244-.294-.507-.495-.79-.6a1.534 1.534 0 0 0-1.539.23l-.682.566c.064 0 .156.04.277.122.117.08.244.18.382.3a21.328 21.328 0 0 1 .686.635c.186.173.377.32.573.441.192.121.387.187.584.198.193.01.384-.063.574-.22.259-.215.375-.473.35-.774-.03-.302-.169-.6-.415-.898Zm-9.77-.147 6.998-4.638.535.806-6.998 4.638-.535-.806ZM11.578 71.34l.369.948a2.113 2.113 0 0 0-.927 1.28 2.296 2.296 0 0 0-.067.778c.022.267.084.53.185.79.184.474.47.857.86 1.148.388.289.86.456 1.414.501.553.043 1.168-.068 1.846-.331.677-.264 1.205-.598 1.584-1.004.378-.408.612-.85.703-1.325a2.56 2.56 0 0 0-.142-1.427 2.8 2.8 0 0 0-.398-.707 2.353 2.353 0 0 0-.572-.53 2.156 2.156 0 0 0-1.552-.315l-.369-.948a3.386 3.386 0 0 1 1.225-.028 3.148 3.148 0 0 1 1.948 1.138c.249.302.45.65.604 1.045.26.667.328 1.324.204 1.97-.124.647-.428 1.236-.913 1.768-.485.532-1.14.958-1.965 1.28-.826.32-1.597.45-2.314.385-.717-.064-1.34-.292-1.868-.685-.528-.392-.922-.922-1.181-1.59a3.773 3.773 0 0 1-.261-1.178 3.253 3.253 0 0 1 .137-1.14c.11-.365.286-.704.528-1.015.24-.31.547-.58.922-.808Zm4.62-6.149c.114.596.082 1.135-.098 1.618a2.7 2.7 0 0 1-.92 1.208c-.433.323-.966.545-1.6.667-.633.122-1.213.115-1.74-.023a2.78 2.78 0 0 1-1.323-.756c-.355-.366-.586-.828-.693-1.386a2.985 2.985 0 0 1-.023-.985c.047-.335.166-.654.358-.958.19-.304.466-.57.832-.799.365-.229.836-.399 1.413-.51l.402-.078.918 4.766-.821.159-.732-3.8a2.066 2.066 0 0 0-.894.389c-.247.19-.425.427-.534.712-.11.283-.132.596-.066.94.073.378.23.688.471.928.238.238.52.402.847.492.326.09.66.103 1 .037l.548-.105c.467-.09.847-.247 1.14-.47.291-.227.493-.5.606-.823a2.03 2.03 0 0 0 .055-1.058 2.09 2.09 0 0 0-.235-.656 1.473 1.473 0 0 0-.423-.466 1.49 1.49 0 0 0-.606-.238l.081-.968c.33.037.635.147.915.33.277.183.514.43.71.74.194.31.33.675.412 1.093Zm-.78-3.987-6.287.345-.052-.933.95-.053-.004-.065a1.512 1.512 0 0 1-.791-.58 1.834 1.834 0 0 1-.346-1 6.977 6.977 0 0 1-.01-.266 3.55 3.55 0 0 1-.002-.242l.983-.054a2.869 2.869 0 0 0-.025.227 2.22 2.22 0 0 0-.009.366c.017.306.096.575.238.808a1.414 1.414 0 0 0 1.323.7l3.979-.219.053.966Zm-6.29-7.77.818.047-.184 3.258-.819-.046.184-3.258ZM7.49 55.659l.054-.966 5.992.339c.273.015.48-.013.62-.084a.616.616 0 0 0 .289-.296c.05-.126.08-.26.088-.402a1.711 1.711 0 0 0-.002-.263l-.023-.165.879-.148a2.123 2.123 0 0 1 .074.727c-.016.273-.09.537-.222.793a1.596 1.596 0 0 1-.572.616c-.25.156-.558.223-.923.202l-6.254-.353Zm8.07-3.313-6.242-.82.126-.96 6.243.821-.127.96ZM8.343 50.9a.688.688 0 0 1-.254.458.619.619 0 0 1-.486.139.619.619 0 0 1-.433-.26.688.688 0 0 1-.127-.509.674.674 0 0 1 .254-.454.613.613 0 0 1 .486-.143.613.613 0 0 1 .432.264c.11.15.153.317.128.505Zm2.107-5.35.8.176-.73 3.315-.801-.177.731-3.314Zm5.637 3.678-6.998-1.544c-.352-.077-.627-.225-.826-.442a1.575 1.575 0 0 1-.386-.761c-.06-.29-.056-.582.008-.876.052-.232.112-.417.182-.556.07-.138.128-.24.176-.305l.757.452a4.767 4.767 0 0 0-.104.187 1.242 1.242 0 0 0-.109.32c-.069.313-.04.556.087.73.128.17.344.289.648.356l6.773 1.494-.208.945Zm.873-3.625-6.018-1.853.285-.925 6.018 1.853-.285.925Zm-6.876-2.632a.688.688 0 0 1-.328.41.62.62 0 0 1-.501.055.62.62 0 0 1-.384-.328.688.688 0 0 1-.04-.523.674.674 0 0 1 .326-.406.613.613 0 0 1 .503-.06c.172.054.3.165.382.333a.674.674 0 0 1 .042.519Zm8.91-2.246c-.235.541-.565.953-.99 1.233-.425.28-.908.43-1.448.446-.54.016-1.099-.1-1.676-.35-.587-.254-1.058-.586-1.413-.996a2.786 2.786 0 0 1-.664-1.368c-.086-.502-.017-1.014.21-1.535.175-.407.409-.74.7-1.001.292-.261.618-.437.979-.528a2.14 2.14 0 0 1 1.116.023l-.384.887a1.5 1.5 0 0 0-.896.15c-.305.14-.542.407-.712.799a1.7 1.7 0 0 0-.123 1.027c.066.336.231.647.494.933.262.283.611.52 1.047.708.447.193.866.291 1.258.294.393 0 .737-.09 1.032-.268.296-.182.52-.448.672-.8.1-.23.15-.457.151-.68a1.413 1.413 0 0 0-.14-.627 1.446 1.446 0 0 0-.42-.513l.383-.888c.32.198.573.455.761.771.186.313.29.666.31 1.059.02.39-.063.797-.248 1.224Zm2.653-5.04c-.213.337-.47.604-.77.799a1.864 1.864 0 0 1-.971.303c-.347.008-.694-.098-1.041-.316-.305-.193-.515-.409-.629-.648a1.505 1.505 0 0 1-.147-.767c.018-.27.077-.542.177-.818.099-.28.21-.554.334-.822.162-.35.296-.632.402-.846.105-.219.16-.39.165-.517.007-.128-.056-.234-.188-.317l-.027-.017c-.343-.216-.667-.29-.975-.222-.306.066-.578.287-.816.664-.246.39-.353.75-.322 1.08.031.33.116.602.253.814l-.767.602c-.236-.342-.372-.686-.406-1.031a2.459 2.459 0 0 1 .099-1.003c.1-.325.236-.62.405-.889.107-.171.252-.355.434-.55.18-.2.398-.364.654-.494a1.71 1.71 0 0 1 .896-.167c.34.02.72.163 1.144.43l3.51 2.211-.516.819-.721-.455-.027.042c.08.128.146.299.197.511a1.9 1.9 0 0 1 .01.729c-.043.273-.162.565-.357.875Zm-.657-.588c.204-.324.313-.637.325-.94a1.535 1.535 0 0 0-.698-1.39l-.75-.471c.02.06.01.161-.03.3-.04.137-.095.29-.166.458a21.772 21.772 0 0 1-.39.85c-.106.23-.187.457-.24.681-.056.22-.057.426-.006.617.05.186.18.345.387.476.285.18.566.21.844.091.278-.122.519-.346.724-.672Zm-.002-9.478.632.523-2.082 2.513-.631-.523 2.082-2.513Zm-2.636.818.617-.745 4.622 3.828c.21.175.393.275.549.301.155.022.291 0 .407-.067a1.25 1.25 0 0 0 .31-.27c.068-.083.12-.154.154-.213l.08-.148.794.403a1.96 1.96 0 0 1-.118.259 2.024 2.024 0 0 1-.253.37c-.175.21-.39.38-.649.506a1.595 1.595 0 0 1-.826.157c-.294-.023-.582-.152-.864-.385l-4.823-3.996Zm10.471.505c-.444.414-.918.673-1.422.777-.504.1-1.008.055-1.512-.136-.504-.195-.976-.529-1.416-1-.44-.472-.742-.968-.905-1.488a2.781 2.781 0 0 1-.064-1.522c.122-.495.39-.936.806-1.324.24-.223.514-.404.822-.543a2.406 2.406 0 0 1 1.002-.206c.358 0 .73.092 1.119.28.388.187.782.496 1.183.925l.28.3-3.549 3.311-.57-.611 2.829-2.64a2.063 2.063 0 0 0-.805-.55 1.607 1.607 0 0 0-.888-.074 1.676 1.676 0 0 0-.83.444 1.74 1.74 0 0 0-.536.892c-.075.328-.064.654.033.979.097.324.264.613.501.867l.38.407c.325.348.66.587 1.005.717.346.126.685.151 1.018.076.332-.078.64-.25.926-.517.186-.173.33-.356.431-.547.102-.196.158-.398.169-.607a1.49 1.49 0 0 0-.12-.639l.862-.446c.145.3.214.616.208.95-.008.332-.09.664-.249.995-.16.329-.396.639-.708.93Zm.968-14.84 7.26 11.744-.697.43-7.26-11.743.697-.43Z" opacity=".7"/><circle cx="56.763" cy="57.113" r="33.742" stroke="#212225" stroke-dasharray="6.19 6.19" stroke-linecap="round" stroke-width=".619"/><path fill="#F9AB10" d="M64.677 55.918h-.623v-.032h-6.97v3.097h4.377a4.644 4.644 0 0 1-9.023-1.549 4.646 4.646 0 0 1 4.646-4.646c1.185 0 2.262.447 3.083 1.177l2.19-2.19a7.708 7.708 0 0 0-5.273-2.084 7.744 7.744 0 1 0 7.593 6.227Z"/><path fill="#E61E32" d="m50.233 53.83 2.545 1.866a4.644 4.644 0 0 1 4.306-2.908c1.185 0 2.262.447 3.082 1.177l2.19-2.19a7.708 7.708 0 0 0-5.272-2.084 7.74 7.74 0 0 0-6.85 4.139Z"/><path fill="#15BE78" d="M57.084 65.178c2 0 3.818-.766 5.192-2.01l-2.397-2.029a4.608 4.608 0 0 1-2.795.941 4.644 4.644 0 0 1-4.368-3.076l-2.525 1.945a7.737 7.737 0 0 0 6.893 4.229Z"/><path fill="#2A89EF" d="M64.677 55.918h-.624v-.032h-6.969v3.097h4.377a4.661 4.661 0 0 1-1.583 2.157h.001l2.397 2.027c-.17.154 2.552-1.861 2.552-5.733a7.88 7.88 0 0 0-.15-1.516Z"/><defs><linearGradient id="a" x1="58.052" x2="185.915" y1="275.757" y2="234.948" gradientUnits="userSpaceOnUse"><stop stop-color="#18191B"/><stop offset="1" stop-color="#0A0A0B"/></linearGradient></defs></svg>